<?xml version="1.0" standalone="no"?>
<!DOCTYPE svg PUBLIC "-//W3C//DTD SVG 20010904//EN"
 "http://www.w3.org/TR/2001/REC-SVG-20010904/DTD/svg10.dtd">
<svg version="1.0" xmlns="http://www.w3.org/2000/svg"
 width="500.000000pt" height="500.000000pt" viewBox="0 0 500.000000 500.000000"
 preserveAspectRatio="xMidYMid meet">

<g transform="translate(0.000000,500.000000) scale(0.100000,-0.100000)"
fill="#000000" stroke="none">
<path d="M2260 3764 c-110 -23 -214 -70 -298 -132 l-32 -25 -50 49 c-49 48
-76 61 -74 37 1 -7 2 -33 3 -58 1 -40 7 -52 48 -95 58 -61 78 -62 153 -15 30
19 63 35 75 35 35 0 294 135 311 162 3 4 13 8 23 8 10 0 23 11 29 25 l12 25
-68 -1 c-37 0 -96 -7 -132 -15z"/>
<path d="M2473 3764 c3 -11 8 -33 12 -50 3 -18 15 -36 28 -42 51 -25 208 -92
215 -92 4 0 24 -13 44 -30 51 -42 78 -50 128 -39 88 20 130 59 130 123 0 68
-7 71 -67 20 -47 -41 -56 -44 -66 -31 -7 9 -51 36 -98 61 -86 45 -189 79 -283
92 -44 6 -48 5 -43 -12z"/>
<path d="M1437 3730 c3 -11 7 -20 8 -20 1 0 5 9 8 20 3 12 0 20 -8 20 -8 0
-11 -8 -8 -20z"/>
<path d="M2475 3308 l-40 -22 30 -6 c22 -5 36 -1 52 13 12 11 20 24 17 28 -7
12 -14 11 -59 -13z"/>
<path d="M3673 3185 c0 -27 2 -38 4 -22 2 15 2 37 0 50 -2 12 -4 0 -4 -28z"/>
<path d="M2667 3013 c-105 -157 -239 -366 -318 -496 -46 -77 -66 -85 -23 -10
52 91 117 198 146 240 16 24 26 48 22 55 -4 7 -3 8 4 4 7 -4 12 -2 12 5 0 7 8
22 18 33 11 14 12 17 2 9 -13 -10 -19 -7 -35 17 -17 26 -20 27 -33 12 -7 -10
-11 -11 -7 -4 3 6 4 12 1 12 -7 0 -102 -185 -134 -260 -19 -47 -43 -200 -31
-200 2 0 29 26 59 57 30 31 48 53 40 49 -8 -4 -4 2 10 14 14 12 19 18 11 14
-8 -4 5 12 27 34 39 39 47 53 43 75 -1 5 3 6 8 2 11 -6 33 28 26 39 -3 3 -2 4
2 1 8 -6 84 97 112 153 23 46 64 72 110 72 16 0 31 4 33 10 2 5 36 10 76 11
l73 2 -3 41 -3 41 -67 3 c-38 2 -68 5 -68 8 0 3 13 25 30 49 l30 43 -32 11
c-17 6 -32 11 -33 11 -1 0 -50 -71 -108 -157z m-173 -174 c-8 -13 -18 -11 -40
7 -10 8 -14 13 -7 10 6 -4 15 -2 18 4 5 8 11 7 21 -1 7 -6 11 -15 8 -20z m-44
-223 c0 -2 -8 -10 -17 -17 -16 -13 -17 -12 -4 4 13 16 21 21 21 13z"/>
<path d="M2077 3065 c-4 -10 -26 -15 -79 -17 l-73 -3 0 -35 c0 -42 15 -48 137
-49 48 -1 90 -5 93 -11 7 -11 154 -13 171 -2 9 6 26 62 19 62 -1 0 -54 16
-116 35 -127 39 -144 41 -152 20z"/>
<path d="M1328 3023 c-27 -8 -53 -23 -58 -33 -15 -27 -23 -229 -11 -265 l9
-30 1 33 c1 28 4 32 24 27 12 -3 64 -9 115 -13 83 -7 95 -6 103 9 15 29 11
241 -5 265 -18 25 -108 29 -178 7z"/>
<path d="M1687 3024 c-32 -6 -63 -16 -69 -22 -6 -6 -13 -66 -15 -134 l-6 -124
117 -1 c64 -1 120 -5 125 -7 16 -10 21 78 11 184 -5 58 -9 108 -10 113 0 10
-83 6 -153 -9z"/>
<path d="M3115 3032 c-96 -8 -112 -13 -124 -38 -13 -28 -14 -238 -1 -269 7
-18 8 -19 15 -2 6 15 22 17 115 17 76 0 111 4 117 13 8 13 6 241 -2 267 -5 15
-45 19 -120 12z"/>
<path d="M3460 3028 c-98 -12 -107 -15 -118 -45 -15 -39 -26 -192 -17 -244 l7
-42 18 23 c16 21 25 23 83 21 36 -1 84 3 107 9 l40 11 0 119 c0 95 -3 122 -16
134 -8 9 -19 14 -24 11 -5 -3 -10 -2 -12 3 -1 4 -32 4 -68 0z"/>
</g>
</svg>
