<?xml version="1.0" standalone="no"?>
<!DOCTYPE svg PUBLIC "-//W3C//DTD SVG 20010904//EN"
 "http://www.w3.org/TR/2001/REC-SVG-20010904/DTD/svg10.dtd">
<svg version="1.0" xmlns="http://www.w3.org/2000/svg"
 width="500.000000pt" height="500.000000pt" viewBox="0 0 500.000000 500.000000"
 preserveAspectRatio="xMidYMid meet">

<g transform="translate(0.000000,500.000000) scale(0.100000,-0.100000)"
fill="#000000" stroke="none">
<path d="M2424 4205 c-22 -48 -21 -55 7 -55 12 0 19 -9 22 -27 l4 -28 2 28 c0
15 8 30 16 34 14 5 14 8 2 22 -8 9 -18 28 -23 43 l-9 28 -21 -45z"/>
<path d="M2289 3985 c-99 -19 -232 -67 -305 -111 -55 -33 -199 -144 -192 -147
2 -1 35 -32 73 -69 l70 -68 50 42 c71 59 194 114 295 131 136 24 170 27 170
12 0 -12 -26 -60 -208 -386 -107 -191 -109 -193 -225 -199 l-92 -5 -3 -122 -3
-123 93 0 c51 0 130 -3 176 -7 95 -7 109 6 33 32 -59 19 -137 73 -125 85 10
10 62 0 172 -32 l73 -21 -6 -46 c-4 -25 -16 -102 -27 -171 -23 -140 -30 -341
-12 -347 14 -5 167 225 289 432 49 83 113 188 143 234 29 46 50 87 45 91 -4 4
-57 22 -118 40 -60 18 -123 40 -140 48 l-29 15 32 27 c23 19 32 35 32 56 -1
28 -61 334 -75 382 -6 19 -4 22 19 22 106 0 286 -70 375 -147 l42 -36 37 35
c20 19 53 49 72 67 l35 32 -44 40 c-188 169 -488 258 -722 214z"/>
<path d="M1436 3835 c-9 -13 -25 -33 -37 -43 l-20 -20 20 -14 c11 -8 27 -30
35 -48 l14 -34 20 41 c12 22 29 44 39 47 11 5 14 10 6 14 -6 4 -22 24 -36 44
l-25 38 -16 -25z"/>
<path d="M3362 3804 c-19 -29 -20 -35 -7 -40 8 -4 15 -16 15 -28 0 -42 15 -43
35 -1 l21 43 -21 30 -21 30 -22 -34z"/>
<path d="M1303 3543 c-52 -10 -53 -17 -53 -440 0 -257 4 -400 11 -416 17 -37
48 -50 130 -55 69 -4 77 -2 105 21 l29 25 3 384 c4 431 1 451 -53 474 -32 13
-121 17 -172 7z"/>
<path d="M3386 3540 c-22 -4 -45 -15 -51 -24 -14 -19 -27 -721 -15 -800 11
-70 33 -86 124 -86 91 0 136 21 152 70 17 51 4 776 -14 808 -23 40 -94 52
-196 32z"/>
<path d="M1603 3513 c-16 -24 -18 -63 -21 -403 -2 -246 0 -387 7 -411 18 -61
112 -87 214 -58 69 19 68 10 65 457 -4 482 10 442 -144 442 -101 0 -104 -1
-121 -27z"/>
<path d="M3001 3514 c-20 -26 -21 -37 -21 -413 0 -363 1 -388 19 -417 25 -41
75 -58 154 -52 50 4 64 9 84 32 l23 27 0 398 c0 486 11 451 -140 451 -95 0
-99 -1 -119 -26z"/>
<path d="M1035 3315 c-25 -24 -25 -25 -25 -230 0 -122 4 -214 10 -226 13 -23
61 -49 90 -49 12 0 35 13 51 29 l29 29 0 207 0 207 -29 29 c-38 38 -91 40
-126 4z"/>
<path d="M3686 3319 l-26 -20 0 -224 0 -224 26 -20 c36 -28 86 -27 121 3 l28
24 0 217 0 217 -28 24 c-35 30 -85 31 -121 3z"/>
<path d="M2818 3128 c-37 -51 -85 -133 -106 -180 -2 -5 44 -8 102 -8 l107 0
-3 123 -3 122 -26 3 c-22 3 -33 -7 -71 -60z"/>
<path d="M1861 2531 c-74 -67 -74 -70 10 -145 316 -284 858 -267 1161 36 l39
39 -48 36 c-26 19 -62 49 -80 66 l-32 30 -52 -47 c-113 -102 -296 -162 -467
-154 -88 5 -99 3 -120 -16 l-24 -21 7 28 c6 21 4 27 -9 27 -27 0 -205 98 -256
140 -26 22 -52 40 -56 40 -5 -1 -38 -27 -73 -59z"/>
<path d="M3370 2389 c-13 -19 -32 -41 -44 -51 -20 -16 -20 -16 11 -42 17 -14
34 -37 37 -51 8 -30 22 -32 31 -4 4 11 20 35 36 54 29 33 30 34 10 45 -12 6
-29 27 -39 47 l-19 36 -23 -34z m35 -79 c-3 -5 -10 -10 -16 -10 -5 0 -9 5 -9
10 0 6 7 10 16 10 8 0 12 -4 9 -10z"/>
<path d="M1418 2366 l-37 -44 20 -18 c12 -11 29 -34 39 -53 l17 -35 17 32 c9
17 28 42 42 55 l25 24 -42 41 c-23 23 -42 42 -43 42 0 -1 -18 -20 -38 -44z"/>
<path d="M349 1947 c-77 -40 -110 -137 -69 -204 27 -44 54 -60 144 -82 91 -23
102 -31 87 -59 -21 -39 -87 -39 -164 0 -44 22 -52 18 -82 -37 -19 -36 -19 -37
0 -51 37 -28 131 -56 186 -57 66 0 141 32 172 74 30 41 34 111 9 151 -28 44
-52 57 -146 82 -84 22 -109 43 -87 70 17 20 80 21 128 1 19 -8 39 -15 43 -15
4 0 20 19 35 42 l27 41 -23 18 c-67 52 -188 64 -260 26z"/>
<path d="M3431 1960 c-10 -5 -222 -425 -242 -477 -8 -23 -7 -23 62 -23 l70 0
25 55 25 55 89 0 89 0 28 -52 28 -53 68 -3 c51 -2 67 0 67 11 0 7 -4 17 -9 23
-9 8 -87 164 -200 395 -28 56 -37 68 -62 71 -16 3 -33 2 -38 -2z m69 -282 c0
-5 -18 -8 -40 -8 -22 0 -40 5 -40 10 0 6 10 31 22 56 l21 46 19 -48 c10 -27
18 -52 18 -56z"/>
<path d="M4240 1955 c-166 -52 -226 -272 -111 -406 48 -57 119 -89 199 -89 79
0 139 27 192 87 50 57 63 98 58 183 -3 60 -8 75 -42 124 -68 99 -180 137 -296
101z m164 -140 c94 -87 34 -235 -95 -235 -23 0 -42 10 -70 39 -34 34 -39 44
-39 85 0 90 43 136 126 136 40 0 57 -5 78 -25z"/>
<path d="M720 1905 l0 -54 73 -3 72 -3 1 -180 c0 -99 1 -186 2 -193 1 -9 18
-12 60 -10 l57 3 3 193 2 192 70 0 c78 0 87 9 74 75 l-6 35 -204 0 -204 0 0
-55z"/>
<path d="M1245 1743 c-59 -120 -114 -233 -121 -250 l-14 -33 69 0 69 0 28 55
29 55 87 0 87 0 28 -52 28 -53 63 -3 c46 -2 62 0 62 10 0 7 -52 119 -114 248
l-113 235 -40 3 -40 3 -108 -218z m185 -60 c0 -8 -15 -13 -40 -13 -22 0 -40 4
-40 9 0 13 27 75 37 84 8 9 42 -56 43 -80z"/>
<path d="M1730 1710 l0 -250 60 0 60 0 0 133 1 132 27 -31 c15 -17 44 -52 66
-78 l38 -47 24 22 c13 12 40 46 61 76 20 29 40 53 45 53 4 0 8 -58 8 -130 l0
-130 60 0 c54 0 60 2 65 23 3 12 4 123 3 247 l-3 225 -49 3 c-59 4 -68 -4
-151 -122 l-59 -84 -80 104 -81 104 -47 0 -48 0 0 -250z"/>
<path d="M2369 1923 c-5 -292 -5 -443 1 -453 4 -7 28 -10 61 -8 l54 3 3 248 2
247 -60 0 -60 0 -1 -37z"/>
<path d="M2604 1947 c-2 -7 -3 -118 -2 -247 l3 -235 60 0 60 0 5 135 5 134 52
-59 c29 -33 82 -95 119 -138 l66 -78 52 3 51 3 3 248 2 247 -60 0 -60 0 0
-135 c0 -74 -4 -135 -9 -135 -5 0 -60 61 -122 135 l-114 135 -53 0 c-33 0 -54
-5 -58 -13z"/>
<path d="M3867 1953 c-4 -3 -7 -116 -7 -250 l0 -243 65 0 65 0 0 250 0 250
-58 0 c-32 0 -62 -3 -65 -7z"/>
<path d="M3701 1752 c-41 -33 -25 -103 30 -133 22 -11 76 8 89 31 42 78 -52
157 -119 102z"/>
</g>
</svg>
