<?xml version="1.0" standalone="no"?>
<!DOCTYPE svg PUBLIC "-//W3C//DTD SVG 20010904//EN"
 "http://www.w3.org/TR/2001/REC-SVG-20010904/DTD/svg10.dtd">
<svg version="1.0" xmlns="http://www.w3.org/2000/svg"
 width="500.000000pt" height="500.000000pt" viewBox="0 0 500.000000 500.000000"
 preserveAspectRatio="xMidYMid meet">

<g transform="translate(0.000000,500.000000) scale(0.100000,-0.100000)"
fill="#000000" stroke="none">
<path d="M2548 4074 c-3 -5 -11 -25 -17 -44 -7 -22 -23 -43 -41 -53 -37 -23
-38 -33 -1 -52 20 -10 35 -30 47 -61 l18 -47 14 42 c9 28 25 49 48 64 19 12
34 24 34 27 0 3 -15 14 -33 26 -20 13 -38 37 -48 64 -8 24 -18 40 -21 34z"/>
<path d="M2350 3679 c-201 -25 -404 -104 -600 -235 -113 -74 -262 -193 -258
-204 2 -5 45 -56 97 -115 83 -94 95 -104 111 -93 9 7 44 35 76 61 234 191 492
297 724 297 232 0 490 -106 724 -297 32 -26 67 -54 76 -61 16 -11 28 -1 111
93 52 59 95 110 97 115 4 11 -143 128 -261 206 -282 188 -599 271 -897 233z"/>
<path d="M1015 3451 c-13 -40 -25 -55 -57 -74 l-41 -24 41 -23 c33 -19 45 -33
58 -72 8 -26 17 -48 19 -48 2 0 11 21 19 48 12 36 25 53 56 72 l40 25 -39 23
c-31 18 -43 34 -56 73 -9 27 -18 49 -20 49 -2 0 -11 -22 -20 -49z"/>
<path d="M3950 3429 c-9 -27 -25 -49 -47 -63 -18 -11 -33 -23 -33 -26 0 -3 15
-15 34 -27 23 -15 39 -36 48 -65 l15 -43 18 48 c12 32 28 53 47 63 36 18 35
29 -2 51 -18 10 -34 31 -41 53 -17 53 -24 55 -39 9z"/>
<path d="M2313 2973 c-122 -208 -230 -394 -239 -413 -9 -19 -43 -80 -74 -135
-91 -159 -87 -140 -27 -163 28 -11 130 -37 225 -58 157 -35 172 -40 172 -59 0
-22 -48 -449 -75 -670 -19 -151 -19 -181 0 -189 18 -7 -6 -44 409 637 284 466
327 542 318 560 -8 18 -41 30 -198 71 -104 27 -193 52 -197 56 -4 4 5 41 21
82 16 41 28 88 26 104 -2 16 -24 142 -50 279 -43 233 -56 275 -84 275 -3 0
-105 -170 -227 -377z"/>
<path d="M850 3045 c-46 -21 -78 -51 -101 -97 -18 -35 -19 -67 -19 -628 0
-561 1 -593 19 -628 39 -76 101 -112 194 -112 52 0 71 5 108 29 25 16 57 46
70 67 l24 39 3 595 2 595 -23 44 c-14 25 -43 58 -66 75 -35 25 -53 31 -109 33
-45 2 -79 -2 -102 -12z"/>
<path d="M1352 3050 c-44 -18 -88 -60 -110 -103 -22 -44 -22 -47 -22 -628 l1
-584 22 -45 c15 -29 41 -57 71 -77 42 -29 57 -33 113 -33 93 0 155 36 194 112
18 35 19 67 19 628 0 561 -1 593 -19 628 -24 47 -56 77 -103 97 -41 16 -130
19 -166 5z"/>
<path d="M3492 3050 c-45 -19 -91 -62 -111 -104 -20 -41 -21 -58 -21 -628 l0
-585 23 -44 c14 -27 42 -57 71 -76 42 -29 57 -33 113 -33 93 0 155 36 194 112
18 35 19 67 19 630 l0 593 -23 40 c-12 21 -41 53 -65 69 -36 25 -54 31 -110
33 -37 2 -77 -2 -90 -7z"/>
<path d="M3985 3046 c-16 -8 -44 -29 -62 -47 -65 -68 -63 -50 -63 -682 l0
-573 26 -52 c17 -35 40 -61 72 -82 44 -30 52 -31 124 -28 68 3 80 7 114 34 55
44 73 72 84 133 13 72 13 1071 0 1142 -20 102 -100 169 -205 168 -33 0 -73 -6
-90 -13z"/>
<path d="M413 2750 c-62 -38 -63 -42 -63 -432 0 -332 1 -355 20 -385 26 -43
68 -63 132 -63 59 0 99 20 129 66 18 27 19 53 19 384 0 331 -1 357 -19 384
-10 15 -32 37 -47 47 -40 26 -128 26 -171 -1z"/>
<path d="M4420 2744 c-60 -51 -60 -51 -60 -424 0 -373 0 -373 60 -424 26 -21
42 -26 86 -26 65 0 104 18 136 62 l23 33 0 355 c0 395 1 388 -68 430 -50 31
-137 27 -177 -6z"/>
<path d="M1873 2490 c-57 -10 -110 -25 -118 -34 -22 -21 -22 -360 -1 -382 12
-11 63 -14 281 -14 343 0 344 2 42 119 -119 46 -217 88 -217 93 0 5 28 57 61
116 34 59 64 110 66 115 5 8 13 9 -114 -13z"/>
<path d="M3075 2298 c-92 -110 -168 -208 -169 -217 -1 -14 20 -16 179 -16
l180 0 3 206 c2 164 0 209 -11 218 -11 9 -47 -29 -182 -191z"/>
<path d="M3294 1579 c-152 -138 -315 -236 -489 -295 -100 -34 -122 -38 -240
-42 -289 -9 -492 69 -817 318 l-26 20 -89 -102 c-49 -57 -92 -108 -96 -114 -3
-6 21 -33 56 -61 225 -180 489 -307 722 -348 116 -20 317 -21 420 -1 265 52
536 197 772 413 l53 48 -105 107 -105 108 -56 -51z"/>
<path d="M1036 1265 c-13 -40 -24 -55 -57 -73 l-41 -24 38 -23 c29 -17 44 -37
60 -76 l21 -52 17 51 c14 41 26 57 58 76 l39 23 -37 23 c-25 16 -44 39 -59 74
l-22 50 -17 -49z"/>
<path d="M3946 1263 c-12 -37 -24 -53 -51 -67 -20 -11 -34 -23 -33 -27 2 -4
18 -18 37 -31 24 -16 39 -38 51 -73 l17 -50 17 52 c14 42 25 56 58 76 l42 24
-41 26 c-29 18 -45 37 -53 64 -19 58 -26 59 -44 6z"/>
</g>
</svg>
